<svg xmlns="http://www.w3.org/2000/svg" width="1120" height="360" viewBox="0 0 1120 360">
<rect width="1120" height="360" fill="#fdfdfd"/>
<text x="50" y="52" font-size="28" font-family="Arial" fill="#183153">Object Detection Pipeline</text>
<rect x="50" y="88" width="200" height="190" rx="18" fill="#ffffff" stroke="#1f77b4" stroke-width="3"/>
<rect x="75" y="112" width="120" height="100" fill="#e5f1ff"/>
<rect x="95" y="132" width="70" height="55" fill="none" stroke="#ef4444" stroke-width="4"/>
<text x="108" y="302" font-size="20" font-family="Arial" fill="#183153">Input image</text>
<line x1="250" y1="184" x2="360" y2="184" stroke="#183153" stroke-width="5"/>
<polygon points="360,184 343,174 343,194" fill="#183153"/>
<rect x="365" y="95" width="210" height="180" rx="18" fill="#eef5ff" stroke="#2a6fdb" stroke-width="3"/>
<rect x="392" y="122" width="156" height="34" rx="8" fill="#dbeafe"/>
<rect x="392" y="165" width="156" height="34" rx="8" fill="#dbeafe"/>
<rect x="392" y="208" width="156" height="34" rx="8" fill="#dbeafe"/>
<text x="412" y="144" font-size="18" font-family="Arial" fill="#183153">Backbone</text>
<text x="403" y="187" font-size="18" font-family="Arial" fill="#183153">Feature pyramid</text>
<text x="398" y="230" font-size="18" font-family="Arial" fill="#183153">Detection head</text>
<line x1="575" y1="184" x2="690" y2="184" stroke="#183153" stroke-width="5"/>
<polygon points="690,184 673,174 673,194" fill="#183153"/>
<rect x="695" y="88" width="165" height="190" rx="18" fill="#ffffff" stroke="#ef4444" stroke-width="3"/>
<rect x="722" y="117" width="108" height="70" fill="#fff2f2" stroke="#ef4444" stroke-width="3"/>
<rect x="738" y="136" width="75" height="35" fill="none" stroke="#ef4444" stroke-width="4"/>
<text x="719" y="302" font-size="20" font-family="Arial" fill="#183153">Candidate boxes</text>
<line x1="860" y1="184" x2="975" y2="184" stroke="#183153" stroke-width="5"/>
<polygon points="975,184 958,174 958,194" fill="#183153"/>
<rect x="980" y="88" width="90" height="190" rx="18" fill="#f0fff4" stroke="#16a34a" stroke-width="3"/>
<text x="998" y="160" font-size="20" font-family="Arial" fill="#183153">NMS</text>
<text x="993" y="302" font-size="18" font-family="Arial" fill="#183153">filtered</text>
</svg>
