<svg xmlns="http://www.w3.org/2000/svg" width="1120" height="390" viewBox="0 0 1120 390">
<rect width="1120" height="390" fill="#fffdf8"/>
<text x="45" y="52" font-size="28" font-family="Arial" fill="#183153">YOLO intuition: one pass, many predictions</text>
<rect x="55" y="95" width="260" height="260" rx="18" fill="#ffffff" stroke="#2457a7" stroke-width="3"/>
<rect x="85" y="125" width="200" height="200" fill="#f1f7ff" stroke="#2457a7" stroke-width="2"/>
<line x1="113.5" y1="125" x2="113.5" y2="325" stroke="#8bb5ff" stroke-width="2"/>
<line x1="142" y1="125" x2="142" y2="325" stroke="#8bb5ff" stroke-width="2"/>
<line x1="170.5" y1="125" x2="170.5" y2="325" stroke="#8bb5ff" stroke-width="2"/>
<line x1="199" y1="125" x2="199" y2="325" stroke="#8bb5ff" stroke-width="2"/>
<line x1="227.5" y1="125" x2="227.5" y2="325" stroke="#8bb5ff" stroke-width="2"/>
<line x1="256" y1="125" x2="256" y2="325" stroke="#8bb5ff" stroke-width="2"/>
<line x1="85" y1="153.5" x2="285" y2="153.5" stroke="#8bb5ff" stroke-width="2"/>
<line x1="85" y1="182" x2="285" y2="182" stroke="#8bb5ff" stroke-width="2"/>
<line x1="85" y1="210.5" x2="285" y2="210.5" stroke="#8bb5ff" stroke-width="2"/>
<line x1="85" y1="239" x2="285" y2="239" stroke="#8bb5ff" stroke-width="2"/>
<line x1="85" y1="267.5" x2="285" y2="267.5" stroke="#8bb5ff" stroke-width="2"/>
<line x1="85" y1="296" x2="285" y2="296" stroke="#8bb5ff" stroke-width="2"/>
<rect x="170.5" y="182" width="28.5" height="28.5" fill="#fed7aa" stroke="#ea580c" stroke-width="3"/>
<text x="78" y="342" font-size="18" font-family="Arial" fill="#183153">grid cells predict objectness, box offsets, classes</text>
<line x1="315" y1="225" x2="450" y2="225" stroke="#183153" stroke-width="5"/>
<polygon points="450,225 433,215 433,235" fill="#183153"/>
<rect x="455" y="120" width="260" height="200" rx="18" fill="#eef5ff" stroke="#2a6fdb" stroke-width="3"/>
<rect x="490" y="153" width="190" height="34" rx="8" fill="#dbeafe"/>
<rect x="490" y="198" width="190" height="34" rx="8" fill="#dbeafe"/>
<rect x="490" y="243" width="190" height="34" rx="8" fill="#dbeafe"/>
<text x="555" y="176" font-size="18" font-family="Arial" fill="#183153">Backbone</text>
<text x="562" y="221" font-size="18" font-family="Arial" fill="#183153">Neck</text>
<text x="555" y="266" font-size="18" font-family="Arial" fill="#183153">Head</text>
<line x1="715" y1="225" x2="850" y2="225" stroke="#183153" stroke-width="5"/>
<polygon points="850,225 833,215 833,235" fill="#183153"/>
<rect x="855" y="120" width="200" height="200" rx="18" fill="#ffffff" stroke="#16a34a" stroke-width="3"/>
<rect x="895" y="165" width="95" height="65" fill="none" stroke="#ef4444" stroke-width="4"/>
<text x="883" y="274" font-size="18" font-family="Arial" fill="#183153">box + class + score</text>
</svg>
